<svg width="172" height="213" viewBox="0 0 172 213" fill="none" xmlns="http://www.w3.org/2000/svg">
<path fill-rule="evenodd" clip-rule="evenodd" d="M133.153 47.4076C141.385 47.4076 148.098 54.037 148.098 62.1691C148.098 70.2978 141.385 76.9289 133.153 76.9289C124.924 76.9289 118.211 70.2978 118.211 62.1691C118.209 54.0386 124.924 47.4076 133.153 47.4076ZM133.153 23.8988C154.493 23.8988 171.895 41.0908 171.895 62.1691C171.895 83.2456 154.493 100.438 133.153 100.438C111.816 100.438 94.4115 83.2456 94.4115 62.1691C94.4115 41.0908 111.816 23.8988 133.153 23.8988ZM133.153 130.791C141.385 130.791 148.098 137.422 148.098 145.553C148.098 153.683 141.385 160.312 133.153 160.312C124.93 160.312 118.211 153.658 118.211 145.553C118.209 137.422 124.924 130.791 133.153 130.791ZM94.3605 145.553C94.3605 124.474 111.814 107.282 133.151 107.282C154.491 107.282 171.894 124.474 171.894 145.553C171.894 166.631 154.491 183.823 133.151 183.823C127.861 183.823 122.812 182.764 118.212 180.853V205.222L94.3605 208.295V145.553ZM49.3506 130.791C41.1198 130.791 34.4068 137.422 34.4068 145.553C34.4068 153.683 41.1198 160.312 49.3506 160.312C57.5746 160.312 64.2943 153.658 64.2943 145.553C64.2943 137.422 57.5814 130.791 49.3506 130.791ZM88.1427 145.553C88.1427 124.474 70.6891 107.282 49.3506 107.282C28.0121 107.282 10.6078 124.474 10.6078 145.553C10.6078 166.631 28.0121 183.823 49.3506 183.823C54.641 183.823 59.688 182.764 64.2892 180.853V212.171L88.1427 209.097V145.553ZM77.7491 74.7404L60.8826 91.3996L89.0837 119.258L105.949 102.598L77.7491 74.7404Z" fill="white"/>
<path d="M77.7475 38.2703C77.7475 59.3486 60.3432 76.5406 38.8754 76.5406C30.5153 76.5389 23.8024 83.17 23.799 91.3004V91.3996H0.00163269L-7.62939e-05 91.3004C-7.62939e-05 70.2222 17.4043 53.0318 38.8721 53.0318C47.2339 53.0318 53.9451 46.3991 53.9451 38.2703C53.9451 30.1399 47.2339 23.5088 39.0031 23.5088C30.8557 23.5088 24.1989 30.0054 24.0627 38.0215H0.265427C0.401557 17.0559 17.7497 0 39.0048 0C60.3433 0 77.7475 17.1904 77.7475 38.2703Z" fill="url(#paint0_linear_19_14)"/>
<defs>
<linearGradient id="paint0_linear_19_14" x1="85.9477" y1="0" x2="85.9477" y2="212.171" gradientUnits="userSpaceOnUse">
<stop stop-color="#FFC593"/>
<stop offset="0.510417" stop-color="#BC7198"/>
<stop offset="1" stop-color="#5A77FF"/>
</linearGradient>
</defs>
</svg>
