<svg width="552" height="227" viewBox="0 0 552 227" fill="none" xmlns="http://www.w3.org/2000/svg">
<path d="M234.12 175.72V160.24H270.84C277.92 160.24 283.38 158.26 287.22 154.3C291.18 150.22 293.16 144.82 293.16 138.1C293.16 131.26 291.24 125.92 287.4 122.08C283.56 118.12 278.04 116.14 270.84 116.14H234.12V104.62H268.32C276.72 104.62 284.1 105.64 290.46 107.68C296.94 109.72 301.98 113.14 305.58 117.94C309.3 122.62 311.16 129.04 311.16 137.2V139.72C311.16 147.4 309.6 153.94 306.48 159.34C303.36 164.62 298.62 168.7 292.26 171.58C285.9 174.34 277.92 175.72 268.32 175.72H234.12ZM220.08 175.72V42.88H237.72V175.72H220.08ZM234.12 112.9V101.38H265.98C273.42 101.38 278.88 99.4 282.36 95.44C285.96 91.36 287.76 86.2 287.76 79.96C287.76 73.6 285.96 68.44 282.36 64.48C278.88 60.4 273.42 58.36 265.98 58.36H234.12V42.88H262.92C277.32 42.88 288.06 45.94 295.14 52.06C302.22 58.06 305.76 66.76 305.76 78.16V80.68C305.76 88.72 303.96 95.14 300.36 99.94C296.76 104.62 291.72 107.98 285.24 110.02C278.88 111.94 271.44 112.9 262.92 112.9H234.12ZM340.984 175V43.6H358.264V175H340.984ZM327.664 57.28V43.6H358.264V57.28H327.664ZM396.088 175V78.88H413.368V175H396.088ZM381.328 92.56V78.88H413.368V92.56H381.328ZM400.948 63.4C397.108 63.4 394.228 62.38 392.308 60.34C390.508 58.3 389.608 55.72 389.608 52.6C389.608 49.48 390.508 46.9 392.308 44.86C394.228 42.82 397.108 41.8 400.948 41.8C404.788 41.8 407.608 42.82 409.408 44.86C411.328 46.9 412.288 49.48 412.288 52.6C412.288 55.72 411.328 58.3 409.408 60.34C407.608 62.38 404.788 63.4 400.948 63.4ZM491.059 178.24C482.659 178.24 475.279 176.8 468.919 173.92C462.559 171.04 457.159 167.26 452.719 162.58C448.399 157.78 445.099 152.44 442.819 146.56C440.659 140.68 439.579 134.68 439.579 128.56V125.32C439.579 119.2 440.719 113.2 442.999 107.32C445.279 101.32 448.639 95.98 453.079 91.3C457.519 86.5 462.919 82.72 469.279 79.96C475.639 77.08 482.899 75.64 491.059 75.64C499.219 75.64 506.479 77.08 512.839 79.96C519.199 82.72 524.599 86.5 529.039 91.3C533.479 95.98 536.839 101.32 539.119 107.32C541.399 113.2 542.539 119.2 542.539 125.32V128.56C542.539 134.68 541.399 140.68 539.119 146.56C536.959 152.44 533.659 157.78 529.219 162.58C524.899 167.26 519.559 171.04 513.199 173.92C506.839 176.8 499.459 178.24 491.059 178.24ZM491.059 162.76C498.259 162.76 504.379 161.2 509.419 158.08C514.579 154.84 518.479 150.52 521.119 145.12C523.879 139.72 525.259 133.66 525.259 126.94C525.259 120.1 523.879 113.98 521.119 108.58C518.359 103.18 514.399 98.92 509.239 95.8C504.199 92.68 498.139 91.12 491.059 91.12C484.099 91.12 478.039 92.68 472.879 95.8C467.719 98.92 463.759 103.18 460.999 108.58C458.239 113.98 456.859 120.1 456.859 126.94C456.859 133.66 458.179 139.72 460.819 145.12C463.579 150.52 467.479 154.84 472.519 158.08C477.679 161.2 483.859 162.76 491.059 162.76Z" fill="white"/>
<path fill-rule="evenodd" clip-rule="evenodd" d="M133.153 47.4076C141.385 47.4076 148.098 54.037 148.098 62.1691C148.098 70.2978 141.385 76.9289 133.153 76.9289C124.924 76.9289 118.211 70.2978 118.211 62.1691C118.209 54.0386 124.924 47.4076 133.153 47.4076ZM133.153 23.8988C154.493 23.8988 171.895 41.0908 171.895 62.1691C171.895 83.2456 154.493 100.438 133.153 100.438C111.816 100.438 94.4115 83.2456 94.4115 62.1691C94.4115 41.0908 111.816 23.8988 133.153 23.8988ZM133.153 130.791C141.385 130.791 148.098 137.422 148.098 145.553C148.098 153.683 141.385 160.312 133.153 160.312C124.93 160.312 118.211 153.658 118.211 145.553C118.209 137.422 124.924 130.791 133.153 130.791ZM94.3605 145.553C94.3605 124.474 111.814 107.282 133.151 107.282C154.491 107.282 171.894 124.474 171.894 145.553C171.894 166.631 154.491 183.823 133.151 183.823C127.861 183.823 122.812 182.764 118.212 180.853V205.222L94.3605 208.295V145.553ZM49.3506 130.791C41.1198 130.791 34.4068 137.422 34.4068 145.553C34.4068 153.683 41.1198 160.312 49.3506 160.312C57.5746 160.312 64.2943 153.658 64.2943 145.553C64.2943 137.422 57.5814 130.791 49.3506 130.791ZM88.1427 145.553C88.1427 124.474 70.6891 107.282 49.3506 107.282C28.0121 107.282 10.6078 124.474 10.6078 145.553C10.6078 166.631 28.0121 183.823 49.3506 183.823C54.641 183.823 59.688 182.764 64.2892 180.853V212.171L88.1427 209.097V145.553ZM77.7491 74.7404L60.8826 91.3996L89.0837 119.258L105.949 102.598L77.7491 74.7404Z" fill="white"/>
<path d="M77.7475 38.2703C77.7475 59.3486 60.3432 76.5406 38.8754 76.5406C30.5153 76.5389 23.8024 83.17 23.799 91.3004V91.3996H0.00163269L-7.62939e-05 91.3004C-7.62939e-05 70.2222 17.4043 53.0318 38.8721 53.0318C47.2339 53.0318 53.9451 46.3991 53.9451 38.2703C53.9451 30.1399 47.2339 23.5088 39.0031 23.5088C30.8557 23.5088 24.1989 30.0054 24.0627 38.0215H0.265427C0.401557 17.0559 17.7497 0 39.0048 0C60.3433 0 77.7475 17.1904 77.7475 38.2703Z" fill="url(#paint0_linear_19_14)"/>
<defs>
<linearGradient id="paint0_linear_19_14" x1="85.9477" y1="0" x2="85.9477" y2="212.171" gradientUnits="userSpaceOnUse">
<stop stop-color="#FFC593"/>
<stop offset="0.510417" stop-color="#BC7198"/>
<stop offset="1" stop-color="#5A77FF"/>
</linearGradient>
</defs>
</svg>
